<svg width="851" height="872" viewBox="0 0 851 872" fill="none" xmlns="http://www.w3.org/2000/svg">
<g clip-path="url(#clip0_1_2)">
<path d="M852.517 -0.410461H-0.205811V868.812H852.517V-0.410461Z" fill="white" style="fill:white;fill-opacity:1;"/>
<path d="M21.1862 173.777L72.384 173.823V186.171H77.7658V162.273H241.389V155.738H230.249V104.955H393.91V10.8157H507.135V103.894L513.883 103.94L513.89 92.8278L552.64 92.7846L552.589 102.754L645.861 102.918V180.772H779.327V364.727H732.091V395.157H807.85V433.699H766.454V421.661H747.603V433.642H621.977V440.068L643.119 439.626L643.488 611.022H564.377L564.577 648.372H577.845V713.571L525.433 713.698L525.411 730.674H381.291V821.109H347.305V827.432L328.405 850.44H291.781V753.365L235.117 754.416L235.079 541.757H141.901V415.609L153.281 415.609V411.852H146.932V312.648H241.577V307.743H77.3012V253.692H72.4353L72.5814 266.733L21.1862 266.699V173.777Z" fill="#BEBFBE" style="fill:#BEBFBE;fill:color(display-p3 0.7451 0.7490 0.7451);fill-opacity:1;"/>
<path d="M310.65 289.234H357.037L378.02 268.251V254.869H380.087V313.007H349.321V438.945H346.019V415.647H278.838L278.839 433.285H243.189V415.999H178.337V411.587H185.623V357.843H223.653V376.559H292.635V312.952H268.373V307.225H285.587V279.816L305.082 279.613L305.333 245.315L310.045 245.323L310.65 289.234Z" fill="white" style="fill:white;fill-opacity:1;"/>
<path d="M274.341 459.797L298.369 459.466V484.622H346.574V459.941H349.808V490.542H419.14L431.124 502.525V598.696H532.345V648.253H431.333V623.629H362.261V629.741H274.341V459.797Z" fill="white" style="fill:white;fill-opacity:1;"/>
<path d="M489.34 401.68H519.409V421.6H570.298V370.626H558.273V358.768H633.156V345.693H640.59V364.575H700.231V395.131H622.386V376.751H589.316V433.632H598.364V440.333H577.364V553.672H489.465L489.34 401.68Z" fill="white" style="fill:white;fill-opacity:1;"/>
<path d="M470.263 155.611H507.634V137.895H513.867V250.799H563.976V300.8H582.558V306.916H525.467V358.595H539.058V370.795L451.053 370.836V312.781H425.339V276.392H457.386V230.567H432.892L420.451 218.127V205.703L431.394 194.761H483.345V158.012H470.263V155.611Z" fill="white" style="fill:white;fill-opacity:1;"/>
<path d="M552.149 136.6H615.25V180.755H570.708V215.113H586.041V218.917L552.149 218.989V136.6Z" fill="white" style="fill:white;fill-opacity:1;"/>
<path d="M599.536 215.356H614.225L614.369 212.769H696.333V217.995H652.107V300.545H640.224V319.499H633.386V306.769H603.078V301.195L621.881 301.102V256.923L608.613 238.572L608.775 231.058L608.613 218.651H599.536L599.536 215.356Z" fill="white" style="fill:white;fill-opacity:1;"/>
<path d="M299.14 136.763L323.962 136.945V155.769H443.409V158.28H393.738V217.195H380.328V225.569H378.271V211.831H310.329V224.886H305.252V197.864H274.262V161.824H268.312V155.806H299.14V136.763Z" fill="white" style="fill:white;fill-opacity:1;"/>
<path d="M450.962 364.872H413.273V366.775H450.962V364.872Z" fill="#3B3B3B" style="fill:#3B3B3B;fill:color(display-p3 0.2314 0.2314 0.2314);fill-opacity:1;"/>
<path d="M477.345 370.676H466.903V382.89H477.345V370.676Z" fill="#808080" style="fill:#808080;fill:color(display-p3 0.5020 0.5020 0.5020);fill-opacity:1;"/>
<path d="M335.281 689.5C340.21 689.5 344.205 685.116 344.205 679.709C344.205 674.301 340.21 669.917 335.281 669.917C330.353 669.917 326.358 674.301 326.358 679.709C326.358 685.116 330.353 689.5 335.281 689.5Z" fill="#B2B2B2" style="fill:#B2B2B2;fill:color(display-p3 0.6980 0.6980 0.6980);fill-opacity:1;"/>
<path d="M262.618 738.843L268.833 732.493H277.079L283.429 738.843V746.445L277.741 753.404L269.588 753.415L262.618 746.446V738.843Z" fill="#8E8E8E" style="fill:#8E8E8E;fill:color(display-p3 0.5569 0.5569 0.5569);fill-opacity:1;"/>
<path d="M151.678 490.664H141.785V499.613H151.678V490.664Z" fill="#B2B2B2" style="fill:#B2B2B2;fill:color(display-p3 0.6980 0.6980 0.6980);fill-opacity:1;"/>
<path d="M378.604 358.764H366.349V364.493H378.604V358.764Z" fill="#B2B2B2" style="fill:#B2B2B2;fill:color(display-p3 0.6980 0.6980 0.6980);fill-opacity:1;"/>
<path d="M615.078 102.999L645.861 102.918V180.771H779.328L779.087 217.995L696.333 217.995V212.769H614.369L614.225 215.356L599.536 215.356V218.651L608.613 218.651V231.058H580.379V218.917H586.041L586.138 215.356L570.707 215.113V180.755H615.25L615.25 136.6L615.078 102.999Z" fill="#D8D9D8" style="fill:#D8D9D8;fill:color(display-p3 0.8471 0.8510 0.8471);fill-opacity:1;"/>
<path d="M691.332 173.434L645.246 230.472M699.94 173.434L653.855 230.472M708.548 173.434L662.463 230.472M717.157 173.434L671.071 230.472M725.765 173.434L679.68 230.472M734.374 173.434L688.288 230.472M742.982 173.434L696.897 230.472M751.59 173.434L705.505 230.472M760.199 173.434L714.113 230.472M768.807 173.434L722.722 230.472M777.416 173.434L731.33 230.472M786.024 173.434L739.939 230.472M794.633 173.434L748.547 230.472M803.241 173.434L757.156 230.472M811.849 173.434L765.764 230.472M820.458 173.434L774.372 230.472" stroke="#BFBFBF" style="stroke:#BFBFBF;stroke:color(display-p3 0.7490 0.7490 0.7490);stroke-opacity:1;" stroke-width="3.33015"/>
<path d="M779.005 180.88H751.991V217.995H779.005V180.88Z" fill="#D9D9D9" style="fill:#D9D9D9;fill:color(display-p3 0.8510 0.8510 0.8510);fill-opacity:1;"/>
<path d="M645.861 180.771L681.507 180.88L681.614 199.256L692.957 199.339L692.75 212.683H645.861L645.861 180.771Z" fill="#D9D9D9" style="fill:#D9D9D9;fill:color(display-p3 0.8510 0.8510 0.8510);fill-opacity:1;"/>
<path d="M640.079 212.798H696.897L696.333 217.995L652.289 234.403L639.549 237.013L640.079 212.798Z" fill="white" style="fill:white;fill-opacity:1;"/>
<path d="M681.86 169.213L827.463 169.92L779.125 230.472L779.005 180.88L681.507 180.88L681.86 169.213Z" fill="white" style="fill:white;fill-opacity:1;"/>
<path d="M615.25 102.754H552.589V136.6H615.25V102.754Z" fill="url(#paint0_linear_1_2)"/>
<path d="M779.005 217.995H652.107V294.859H779.005V217.995Z" fill="#A6A489" style="fill:#A6A489;fill:color(display-p3 0.6510 0.6431 0.5373);fill-opacity:1;"/>
<path d="M185.569 162.273H77.766V278.698H185.569V162.273Z" fill="#A6A489" style="fill:#A6A489;fill:color(display-p3 0.6510 0.6431 0.5373);fill-opacity:1;"/>
<path d="M779.447 339.26H753.617V364.485H779.447V339.26Z" fill="#666666" style="fill:#666666;fill:color(display-p3 0.4000 0.4000 0.4000);fill-opacity:1;"/>
<path d="M779.376 281.608H766.08V294.859H779.376V281.608Z" fill="#666666" style="fill:#666666;fill:color(display-p3 0.4000 0.4000 0.4000);fill-opacity:1;"/>
<path d="M683.994 244.397H671.157V281.446H683.994V244.397Z" fill="#4D4D4D" style="fill:#4D4D4D;fill:color(display-p3 0.3020 0.3020 0.3020);fill-opacity:1;"/>
<path d="M733.891 250.142H722.235V261.598H733.891V250.142Z" fill="#666666" style="fill:#666666;fill:color(display-p3 0.4000 0.4000 0.4000);fill-opacity:1;"/>
<path d="M745.938 253.701H734.684V265.005H745.938V253.701Z" fill="#666666" style="fill:#666666;fill:color(display-p3 0.4000 0.4000 0.4000);fill-opacity:1;"/>
<path d="M779.087 217.995H765.764V230.472H779.087V217.995Z" fill="#808080" style="fill:#808080;fill:color(display-p3 0.5020 0.5020 0.5020);fill-opacity:1;"/>
<path d="M778.872 199.714H765.802V211.086H778.872V199.714Z" fill="#4D4D4D" style="fill:#4D4D4D;fill:color(display-p3 0.3020 0.3020 0.3020);fill-opacity:1;"/>
<path d="M613.898 291.702L621.656 296.181L621.199 300.128L616.006 300.992L610.403 297.757L613.898 291.702Z" fill="#999999" style="fill:#999999;fill:color(display-p3 0.6000 0.6000 0.6000);fill-opacity:1;"/>
<path d="M552.149 205.669H539.211V218.99H552.149V205.669Z" fill="#808080" style="fill:#808080;fill:color(display-p3 0.5020 0.5020 0.5020);fill-opacity:1;"/>
<path d="M608.613 231.058H599.87V238.572H608.613V231.058Z" fill="#999999" style="fill:#999999;fill:color(display-p3 0.6000 0.6000 0.6000);fill-opacity:1;"/>
<path d="M200.698 220.985L205.298 214.22L207.237 213.485L209.652 214.934L212.569 220.985V255.028H200.698V220.985Z" fill="#999999" style="fill:#999999;fill:color(display-p3 0.6000 0.6000 0.6000);fill-opacity:1;"/>
<path d="M185.569 268.052H173.308V278.698H185.569V268.052Z" fill="#808080" style="fill:#808080;fill:color(display-p3 0.5020 0.5020 0.5020);fill-opacity:1;"/>
<path d="M153.059 161.933H140.992V173.359H153.059V161.933Z" fill="#808080" style="fill:#808080;fill:color(display-p3 0.5020 0.5020 0.5020);fill-opacity:1;"/>
<path d="M122.82 219.998L134.661 219.823V226.106L138.98 230.424L137.115 232.289V243.659H125.794V233.954L122.794 228.687L122.82 219.998Z" fill="#808080" style="fill:#808080;fill:color(display-p3 0.5020 0.5020 0.5020);fill-opacity:1;"/>
<path d="M304.878 261.398H285.39V264.317H304.878V261.398Z" fill="#808080" style="fill:#808080;fill:color(display-p3 0.5020 0.5020 0.5020);fill-opacity:1;"/>
<path d="M166.167 464.892H141.91V490.664H166.167V464.892Z" fill="#808080" style="fill:#808080;fill:color(display-p3 0.5020 0.5020 0.5020);fill-opacity:1;"/>
<path d="M443.314 552.876H431.145V565.937H443.314V552.876Z" fill="#808080" style="fill:#808080;fill:color(display-p3 0.5020 0.5020 0.5020);fill-opacity:1;"/>
<path d="M500.906 553.856H489.34V565.84H500.906V553.856Z" fill="#808080" style="fill:#808080;fill:color(display-p3 0.5020 0.5020 0.5020);fill-opacity:1;"/>
<path d="M567.119 580.514H564.331V610.92H567.119V580.514Z" fill="#808080" style="fill:#808080;fill:color(display-p3 0.5020 0.5020 0.5020);fill-opacity:1;"/>
<path d="M630.656 534.755H624.4V540.916H630.656V534.755Z" fill="#999999" style="fill:#999999;fill:color(display-p3 0.6000 0.6000 0.6000);fill-opacity:1;"/>
<path d="M643.473 528.82H630.656V541.032H643.473V528.82Z" fill="#808080" style="fill:#808080;fill:color(display-p3 0.5020 0.5020 0.5020);fill-opacity:1;"/>
<path d="M589.251 491.887H577.363V502.772H589.251V491.887Z" fill="#4D4D4D" style="fill:#4D4D4D;fill:color(display-p3 0.3020 0.3020 0.3020);fill-opacity:1;"/>
<path d="M65.9137 258.679H72.5814V266.733L60.9692 266.718L60.9828 263.986L65.9137 258.679Z" fill="#3B3B3B" style="fill:#3B3B3B;fill:color(display-p3 0.2314 0.2314 0.2314);fill-opacity:1;"/>
<path d="M161.978 278.752L185.57 278.698V187.859H216.437V190.268H187.437V278.952L216.247 278.952L216.247 281.968H161.978V278.752Z" fill="white" style="fill:white;fill-opacity:1;"/>
<path d="M531.816 318.941C535.273 318.941 538.075 316.301 538.075 313.044C538.075 309.787 535.273 307.147 531.816 307.147C528.36 307.147 525.558 309.787 525.558 313.044C525.558 316.301 528.36 318.941 531.816 318.941Z" fill="white" stroke="black" style="fill:white;fill-opacity:1;stroke:black;stroke-opacity:1;" stroke-width="0.781731"/>
<path d="M529.952 358.588C532.349 358.588 534.292 356.633 534.292 354.22C534.292 351.807 532.349 349.852 529.952 349.852C527.555 349.852 525.612 351.807 525.612 354.22C525.612 356.633 527.555 358.588 529.952 358.588Z" fill="#4D4D4D" stroke="black" style="fill:#4D4D4D;fill:color(display-p3 0.3020 0.3020 0.3020);fill-opacity:1;stroke:black;stroke-opacity:1;" stroke-width="0.754908"/>
<path d="M639.35 319.57H634.849V345.918H639.35V319.57Z" fill="#FF6600" style="fill:#FF6600;fill:color(display-p3 1.0000 0.4000 0.0000);fill-opacity:1;"/>
<path d="M642.435 353.265H641.116V358.68H642.435V353.265Z" fill="#FF6600" style="fill:#FF6600;fill:color(display-p3 1.0000 0.4000 0.0000);fill-opacity:1;"/>
<path d="M577.181 225.186C578.802 225.186 580.117 223.841 580.117 222.182C580.117 220.523 578.802 219.179 577.181 219.179C575.56 219.179 574.245 220.523 574.245 222.182C574.245 223.841 575.56 225.186 577.181 225.186Z" fill="#999999" stroke="black" style="fill:#999999;fill:color(display-p3 0.6000 0.6000 0.6000);fill-opacity:1;stroke:black;stroke-opacity:1;" stroke-width="0.682836"/>
<path d="M765.764 217.995H759.906V223.016H765.764V217.995Z" fill="#999999" stroke="black" style="fill:#999999;fill:color(display-p3 0.6000 0.6000 0.6000);fill-opacity:1;stroke:black;stroke-opacity:1;" stroke-width="0.865512"/>
<path d="M570.298 408.808H554.772V421.6H570.298V408.808Z" fill="#808080" stroke="black" style="fill:#808080;fill:color(display-p3 0.5020 0.5020 0.5020);fill-opacity:1;stroke:black;stroke-opacity:1;" stroke-width="0.865512"/>
<path d="M554.772 414.872H548.679V421.6H554.772V414.872Z" fill="#999999" stroke="black" style="fill:#999999;fill:color(display-p3 0.6000 0.6000 0.6000);fill-opacity:1;stroke:black;stroke-opacity:1;" stroke-width="0.865512"/>
<path d="M342.374 422.829C344.415 422.829 346.069 421.206 346.069 419.203C346.069 417.201 344.415 415.577 342.374 415.577C340.333 415.577 338.678 417.201 338.678 419.203C338.678 421.206 340.333 422.829 342.374 422.829Z" fill="#4D4D4D" stroke="black" style="fill:#4D4D4D;fill:color(display-p3 0.3020 0.3020 0.3020);fill-opacity:1;stroke:black;stroke-opacity:1;" stroke-width="0.921596"/>
<path d="M173.086 312.757H158.618V327.795H173.086V312.757Z" fill="#808080" stroke="black" style="fill:#808080;fill:color(display-p3 0.5020 0.5020 0.5020);fill-opacity:1;stroke:black;stroke-opacity:1;" stroke-width="1.28916"/>
<path d="M173.086 327.795H166.016V334.463H173.086V327.795Z" fill="#999999" stroke="black" style="fill:#999999;fill:color(display-p3 0.6000 0.6000 0.6000);fill-opacity:1;stroke:black;stroke-opacity:1;" stroke-width="1.19692"/>
<path d="M285.587 294.969V307.225H272.048L285.587 294.969Z" fill="#3B3B3B" style="fill:#3B3B3B;fill:color(display-p3 0.2314 0.2314 0.2314);fill-opacity:1;"/>
<path d="M554.28 674.239H544.98V683.312H554.28V674.239Z" fill="#999999" style="fill:#999999;fill:color(display-p3 0.6000 0.6000 0.6000);fill-opacity:1;"/>
<path d="M466.37 672.903L478.071 665.865L481.435 674.571L469.734 681.608L466.37 672.903Z" fill="#999999" style="fill:#999999;fill:color(display-p3 0.6000 0.6000 0.6000);fill-opacity:1;"/>
<path d="M442.067 665.564L453.821 661.918L455.751 672.815L443.997 676.461L442.067 665.564Z" fill="#999999" style="fill:#999999;fill:color(display-p3 0.6000 0.6000 0.6000);fill-opacity:1;"/>
<path d="M449.321 94.4216C452.314 94.4216 454.739 92.0613 454.739 89.1497C454.739 86.2381 452.314 83.8778 449.321 83.8778C446.329 83.8778 443.903 86.2381 443.903 89.1497C443.903 92.0613 446.329 94.4216 449.321 94.4216Z" fill="#999999" style="fill:#999999;fill:color(display-p3 0.6000 0.6000 0.6000);fill-opacity:1;"/>
<path d="M482.272 161.211C482.272 161.547 483.594 165.301 482.397 166.576C482.176 166.811 480.4 166.894 480.197 166.992C479.967 167.103 477.948 165.806 477.855 165.153C477.752 164.437 477.699 163.279 477.488 163.342C475.515 163.936 475.147 163.766 474.465 163.766C473.268 163.766 471.698 162.116 471.698 160.844C471.698 159.572 473.33 158.427 474.527 158.427C474.932 158.427 475.995 158.819 477.267 158.924C478.391 159.017 479.692 158.796 480.644 159.16C481.798 159.6 482.272 160.75 482.272 161.211Z" fill="#808080" style="fill:#808080;fill:color(display-p3 0.5020 0.5020 0.5020);fill-opacity:1;"/>
<path d="M238.753 147.896H230.249V155.679H238.753V147.896Z" fill="#808080" style="fill:#808080;fill:color(display-p3 0.5020 0.5020 0.5020);fill-opacity:1;"/>
<path d="M308.984 224.887H306.471V245.264H308.984V224.887Z" fill="#AAD400" style="fill:#AAD400;fill:color(display-p3 0.6667 0.8314 0.0000);fill-opacity:1;"/>
<path d="M208.239 235.096H204.382V238.26H208.239V235.096Z" fill="#AAD400" style="fill:#AAD400;fill:color(display-p3 0.6667 0.8314 0.0000);fill-opacity:1;"/>
<path d="M444.451 265.472L452.808 265.441L452.823 260.835L457.465 260.751V276.475H444.451V265.472Z" fill="#999999" style="fill:#999999;fill:color(display-p3 0.6000 0.6000 0.6000);fill-opacity:1;"/>
<path d="M405.991 477.33H393.001V490.134H405.991V477.33Z" fill="#808080" style="fill:#808080;fill:color(display-p3 0.5020 0.5020 0.5020);fill-opacity:1;"/>
<path d="M525.387 713.698H502.535V730.548H525.387V713.698Z" fill="#808080" style="fill:#808080;fill:color(display-p3 0.5020 0.5020 0.5020);fill-opacity:1;"/>
<path d="M599.492 591.564H588.028V602.353H599.492V591.564Z" fill="#999999" style="fill:#999999;fill:color(display-p3 0.6000 0.6000 0.6000);fill-opacity:1;"/>
<path d="M625.159 584.742H615.497V595.546H625.159V584.742Z" fill="#999999" style="fill:#999999;fill:color(display-p3 0.6000 0.6000 0.6000);fill-opacity:1;"/>
<path d="M643.119 461.286H640.189V472.366H643.119V461.286Z" fill="#999999" style="fill:#999999;fill:color(display-p3 0.6000 0.6000 0.6000);fill-opacity:1;"/>
<path d="M599.536 215.356H586.138V217.71H599.536V215.356Z" fill="#00FFFF" fill-opacity="0.471774" style="fill:#00FFFF;fill:color(display-p3 0.0000 1.0000 1.0000);fill-opacity:0.471774;"/>
<path d="M185.569 263.008H179.557V268.052H185.569V263.008Z" fill="#999999" style="fill:#999999;fill:color(display-p3 0.6000 0.6000 0.6000);fill-opacity:1;"/>
<path d="M779.328 339.311H766.755V364.727H779.328V339.311Z" fill="#4D4D4D" style="fill:#4D4D4D;fill:color(display-p3 0.3020 0.3020 0.3020);fill-opacity:1;"/>
<path d="M347.258 278.683H310.689V289.195H347.258V278.683Z" fill="#B2B2B2" style="fill:#B2B2B2;fill:color(display-p3 0.6980 0.6980 0.6980);fill-opacity:1;"/>
<path d="M77.4432 199.406H72.4651V239.692H77.4432V199.406Z" fill="white" style="fill:white;fill-opacity:1;"/>
<path d="M618.464 301.233C620.146 301.233 621.509 299.778 621.509 297.983C621.509 296.189 620.146 294.734 618.464 294.734C616.782 294.734 615.419 296.189 615.419 297.983C615.419 299.778 616.782 301.233 618.464 301.233Z" fill="#808080" style="fill:#808080;fill:color(display-p3 0.5020 0.5020 0.5020);fill-opacity:1;"/>
<path d="M643.12 440.093H630.769V452.406H643.12V440.093Z" fill="#666666" style="fill:#666666;fill:color(display-p3 0.4000 0.4000 0.4000);fill-opacity:1;"/>
<path d="M643.441 439.892H635.342V448.385H643.441V439.892Z" fill="#4D4D4D" style="fill:#4D4D4D;fill:color(display-p3 0.3020 0.3020 0.3020);fill-opacity:1;"/>
<path d="M643.121 433.424H621.977V439.56H643.121V433.424Z" fill="#4D4D4D" style="fill:#4D4D4D;fill:color(display-p3 0.3020 0.3020 0.3020);fill-opacity:1;"/>
<path d="M598.364 433.632H589.316V440.333H598.364V433.632Z" fill="#4D4D4D" style="fill:#4D4D4D;fill:color(display-p3 0.3020 0.3020 0.3020);fill-opacity:1;"/>
<path d="M399.487 453.902C402.365 453.902 404.698 451.501 404.698 448.539C404.698 445.578 402.365 443.176 399.487 443.176C396.609 443.176 394.275 445.578 394.275 448.539C394.275 451.501 396.609 453.902 399.487 453.902Z" fill="#999999" style="fill:#999999;fill:color(display-p3 0.6000 0.6000 0.6000);fill-opacity:1;"/>
<path d="M379.754 366.764H368.273V378.625H379.754V366.764Z" fill="#4D4D4D" style="fill:#4D4D4D;fill:color(display-p3 0.3020 0.3020 0.3020);fill-opacity:1;"/>
<path d="M361.318 352.682H349.23V364.561H361.318V352.682Z" fill="#808080" style="fill:#808080;fill:color(display-p3 0.5020 0.5020 0.5020);fill-opacity:1;"/>
<path d="M378.604 358.764H366.349V364.493H378.604V358.764Z" fill="#999999" style="fill:#999999;fill:color(display-p3 0.6000 0.6000 0.6000);fill-opacity:1;"/>
<path d="M347.258 278.683H310.689V289.195H347.258V278.683Z" fill="#999999" style="fill:#999999;fill:color(display-p3 0.6000 0.6000 0.6000);fill-opacity:1;"/>
<path d="M608.613 231.058H599.87V238.572H608.613V231.058Z" fill="#999999" style="fill:#999999;fill:color(display-p3 0.6000 0.6000 0.6000);fill-opacity:1;"/>
<path d="M151.679 490.664H141.91V499.613H151.679V490.664Z" fill="#999999" style="fill:#999999;fill:color(display-p3 0.6000 0.6000 0.6000);fill-opacity:1;"/>
<path d="M696.978 274.166H691.705L699.739 250.893H706.08L714.103 274.166H708.83L703 256.211H702.819L696.978 274.166ZM696.648 265.018H709.103V268.859H696.648V265.018Z" fill="black" style="fill:black;fill-opacity:1;"/>
<path d="M98.4337 206.895V182.674H108.131C109.913 182.674 111.4 182.938 112.59 183.466C113.781 183.994 114.676 184.728 115.275 185.666C115.874 186.596 116.174 187.669 116.174 188.883C116.174 189.829 115.984 190.661 115.606 191.378C115.227 192.088 114.707 192.671 114.045 193.129C113.39 193.578 112.641 193.897 111.798 194.086V194.323C112.72 194.362 113.584 194.623 114.388 195.104C115.2 195.585 115.858 196.259 116.363 197.126C116.867 197.985 117.12 199.01 117.12 200.201C117.12 201.486 116.8 202.633 116.162 203.642C115.531 204.644 114.597 205.436 113.359 206.02C112.121 206.603 110.595 206.895 108.782 206.895H98.4337ZM103.555 202.708H107.729C109.156 202.708 110.197 202.436 110.852 201.892C111.506 201.34 111.833 200.607 111.833 199.692C111.833 199.022 111.672 198.431 111.348 197.918C111.025 197.406 110.564 197.004 109.965 196.712C109.373 196.42 108.668 196.274 107.848 196.274H103.555V202.708ZM103.555 192.809H107.351C108.053 192.809 108.676 192.687 109.22 192.443C109.771 192.19 110.205 191.836 110.52 191.378C110.844 190.921 111.005 190.373 111.005 189.734C111.005 188.859 110.694 188.153 110.071 187.617C109.456 187.081 108.581 186.813 107.446 186.813H103.555V192.809Z" fill="black" style="fill:black;fill-opacity:1;"/>
<path d="M235.119 753.365H291.781V850.44H328.405L347.305 827.432V821.109H381.291L381.342 730.668L525.409 730.676V713.572L577.845 713.571V648.372H564.577L564.377 611.022L643.49 611.02L643.121 439.624L621.977 439.56L621.977 433.642H747.603V421.661H766.454V433.699H807.85V395.157H732.091V364.727H779.327V180.771H645.861V102.918L552.589 102.754L552.504 92.4334L513.89 92.8277L513.883 103.94L507.135 103.894V10.8156H393.91V104.955L230.264 104.515L230.249 155.737H241.389V162.273H77.766V186.17H72.3839V173.823L21.1832 173.566L21.1862 266.699L72.5814 266.733L72.4353 253.692H77.3011V307.743H241.577V312.648H146.932V411.852H153.281V415.609L141.901 415.609V541.757L235.117 541.902V754.416" stroke="black" style="stroke:black;stroke-opacity:1;" stroke-width="1.00548"/>
<path d="M212.569 220.985C212.569 220.985 210.495 213.389 207.25 213.211C204.005 213.033 200.681 220.859 200.681 220.859L200.698 255.028L212.62 255.02L212.569 220.985Z" stroke="black" style="stroke:black;stroke-opacity:1;" stroke-width="0.999999"/>
<path d="M125.662 233.726L125.794 233.954V243.659H137.115L137.115 232.289L138.98 230.424L134.661 226.106V219.823L122.82 219.998L122.794 228.687L125.662 233.726Z" stroke="black" style="stroke:black;stroke-opacity:1;" stroke-width="0.999999"/>
<path d="M72.465 199.406V239.692H77.4431V199.477L72.465 199.406Z" stroke="black" style="stroke:black;stroke-opacity:1;" stroke-width="0.999999"/>
<path d="M77.3069 278.698H185.569V187.859H216.437V190.268H187.437V278.952H216.247V281.968H77.2451" stroke="black" style="stroke:black;stroke-opacity:1;" stroke-width="0.999999"/>
<path d="M161.978 278.752V282.019" stroke="black" style="stroke:black;stroke-opacity:1;" stroke-width="0.999999"/>
<path d="M173.308 278.377V268.052H185.374" stroke="black" style="stroke:black;stroke-opacity:1;" stroke-width="0.999999"/>
<path d="M292.254 217.339H274.119V261.328H305.054" stroke="black" style="stroke:black;stroke-opacity:1;" stroke-width="0.999999"/>
<path d="M285.39 261.398V264.317H304.878" stroke="black" style="stroke:black;stroke-opacity:1;" stroke-width="0.999999"/>
<path d="M278.838 415.647H346.019V438.945H349.321V313.007H380.087V254.869H378.02V268.251L357.037 289.234H310.65L310.045 245.321L305.333 245.314L305.082 279.612L285.587 279.814V307.223H268.373V312.95H292.635V376.558H223.653V357.841H185.623V411.586H178.337V415.997H243.189V433.284L278.839 433.284L278.838 415.647Z" stroke="black" style="stroke:black;stroke-opacity:1;" stroke-width="0.999999"/>
<path d="M141.785 490.664H166.167V464.892H141.91" stroke="black" style="stroke:black;stroke-opacity:1;" stroke-width="0.999999"/>
<path d="M335.271 689.606C340.524 689.606 344.783 685.164 344.783 679.684C344.783 674.205 340.524 669.763 335.271 669.763C330.017 669.763 325.758 674.205 325.758 679.684C325.758 685.164 330.017 689.606 335.271 689.606Z" stroke="black" style="stroke:black;stroke-opacity:1;" stroke-width="1.13386"/>
<path d="M269.588 753.414L262.618 746.445V738.708L268.833 732.493H277.079L283.429 738.843V747.263L277.741 753.404" stroke="black" style="stroke:black;stroke-opacity:1;" stroke-width="0.999999"/>
<path d="M502.535 730.768V713.698L525.409 713.571" stroke="black" style="stroke:black;stroke-opacity:1;" stroke-width="0.999999"/>
<path d="M643.473 528.82H630.656V534.755H624.4V540.917H643.39" stroke="black" style="stroke:black;stroke-opacity:1;" stroke-width="0.999999"/>
<path d="M630.656 534.755V541.032" stroke="black" style="stroke:black;stroke-opacity:1;" stroke-width="0.999999"/>
<path d="M489.465 553.672H577.364V440.333H598.364V433.632H589.316V376.751H622.386V395.131H700.231V364.575H640.59V345.693H633.156V358.768H558.273V370.626H570.298V421.6H519.409V401.68H489.34V553.808" stroke="black" style="stroke:black;stroke-opacity:1;" stroke-width="0.999999"/>
<path d="M489.34 553.808V565.84H500.906V553.856" stroke="black" style="stroke:black;stroke-opacity:1;" stroke-width="0.999999"/>
<path d="M305.252 224.886H310.329V211.831H378.271V225.569H380.328V217.195H393.738V158.28H443.409V155.769H323.962V136.945L299.14 136.763V155.806H268.312V161.824H274.262V197.864H305.252V224.886Z" stroke="black" style="stroke:black;stroke-opacity:1;" stroke-width="0.999999"/>
<path d="M630.769 440.093V452.406H643.12" stroke="black" style="stroke:black;stroke-opacity:1;" stroke-width="0.999999"/>
<path d="M635.342 439.892L635.361 448.385H643.441" stroke="black" style="stroke:black;stroke-opacity:1;" stroke-width="0.999999"/>
<path d="M577.478 491.887H589.251V502.772H577.363" stroke="black" style="stroke:black;stroke-opacity:1;" stroke-width="0.999999"/>
<path d="M431.124 598.696V502.525L419.14 490.542H349.808V459.941H346.574V484.622H298.369V459.466L274.341 459.797V629.741H362.261V623.629H431.333V648.253H532.345V598.696H431.124Z" stroke="black" style="stroke:black;stroke-opacity:1;" stroke-width="0.999999"/>
<path d="M431.096 565.937H443.314V552.876H431.145" stroke="black" style="stroke:black;stroke-opacity:1;" stroke-width="0.999999"/>
<path d="M443.314 552.876H464.297V464.869H431.697" stroke="black" style="stroke:black;stroke-opacity:1;" stroke-width="0.999999"/>
<path d="M431.15 433.724H464.029V370.795H539.058V358.595H525.467V306.916H582.558V300.8H563.975V250.799H513.867V137.895H507.634V155.611H470.263V158.012H483.345V194.761H431.394L420.451 205.703V218.127L432.892 230.567H457.386V276.392H425.339V312.781H451.053V370.836H464.07" stroke="black" style="stroke:black;stroke-opacity:1;" stroke-width="0.999999"/>
<path d="M351.106 366.805C339.391 366.844 397.965 366.79 386.25 366.807" stroke="black" style="stroke:black;stroke-opacity:1;" stroke-width="0.973928"/>
<path d="M412.766 366.775L387.242 366.805L386.165 366.806" stroke="black" style="stroke:black;stroke-opacity:1;" stroke-width="0.999999" stroke-dasharray="2 1"/>
<path d="M386.803 364.828L412.805 364.812" stroke="black" style="stroke:black;stroke-opacity:1;" stroke-width="0.999999" stroke-dasharray="2 1"/>
<path d="M386.803 364.828H349.559" stroke="black" style="stroke:black;stroke-opacity:1;" stroke-width="0.999999"/>
<path d="M349.23 352.682H361.318V364.561" stroke="black" style="stroke:black;stroke-opacity:1;" stroke-width="0.999999"/>
<path d="M366.349 364.591V358.764H378.604V364.493" fill="#999999" style="fill:#999999;fill:color(display-p3 0.6000 0.6000 0.6000);fill-opacity:1;"/>
<path d="M366.349 364.591V358.764H378.604V364.493" stroke="black" style="stroke:black;stroke-opacity:1;" stroke-width="0.999999"/>
<path d="M412.805 364.812H450.882" stroke="black" style="stroke:black;stroke-opacity:1;" stroke-width="0.999999"/>
<path d="M412.766 366.775H450.962" stroke="black" style="stroke:black;stroke-opacity:1;" stroke-width="0.999999"/>
<path d="M413.273 364.872V366.898" stroke="black" style="stroke:black;stroke-opacity:1;" stroke-width="0.999999"/>
<path d="M576.404 300.76V263.543" stroke="black" style="stroke:black;stroke-opacity:1;" stroke-width="0.999999"/>
<path d="M609.373 301.102V263.115" stroke="black" style="stroke:black;stroke-opacity:1;" stroke-width="0.999999"/>
<path d="M621.973 296.181L613.997 291.702L610.403 297.757L616.164 300.992" stroke="black" style="stroke:black;stroke-opacity:1;" stroke-width="0.999999"/>
<path d="M609.373 301.102H621.881V256.923L608.613 238.571" stroke="black" style="stroke:black;stroke-opacity:1;" stroke-width="0.999999"/>
<path d="M608.613 238.571V218.651H599.536V215.356H614.225V210.341" stroke="black" style="stroke:black;stroke-opacity:1;" stroke-width="0.999999"/>
<path d="M614.369 212.769H696.333V217.995H652.107V300.545H640.224V319.499H633.386V306.769H603.078V301.195L609.373 301.102" stroke="black" style="stroke:black;stroke-opacity:1;" stroke-width="0.999999"/>
<path d="M618.348 301.079C620.286 301.079 621.858 299.663 621.858 297.916C621.858 296.169 620.286 294.753 618.348 294.753C616.409 294.753 614.838 296.169 614.838 297.916C614.838 299.663 616.409 301.079 618.348 301.079Z" stroke="black" style="stroke:black;stroke-opacity:1;" stroke-width="1.04685"/>
<path d="M608.613 238.571H599.871V231.058H608.775" stroke="black" style="stroke:black;stroke-opacity:1;" stroke-width="0.999999"/>
<path d="M599.871 231.058H580.379V218.917M580.379 218.917H586.041V215.113H570.708V180.755H615.25V136.6H552.149L551.546 218.917H580.379Z" stroke="black" style="stroke:black;stroke-opacity:1;" stroke-width="0.999999"/>
<path d="M551.546 218.917L539.211 218.99L539.211 205.669H552.149" stroke="black" style="stroke:black;stroke-opacity:1;" stroke-width="0.999999"/>
<path d="M779.376 281.608H766.08V294.859H779.005" stroke="black" style="stroke:black;stroke-opacity:1;" stroke-width="0.999999"/>
<path d="M779.448 339.26H753.617V364.485" stroke="black" style="stroke:black;stroke-opacity:1;" stroke-width="0.999999"/>
<path d="M766.755 339.311V364.472" stroke="black" style="stroke:black;stroke-opacity:1;" stroke-width="0.999999"/>
<path d="M60.9692 266.718L60.9827 263.986L65.9137 258.679L72.3292 258.641" stroke="black" style="stroke:black;stroke-opacity:1;" stroke-width="0.999999"/>
<path d="M449.458 94.4743C452.479 94.4743 454.928 92.0107 454.928 88.9716C454.928 85.9326 452.479 83.4689 449.458 83.4689C446.437 83.4689 443.987 85.9326 443.987 88.9716C443.987 92.0107 446.437 94.4743 449.458 94.4743Z" stroke="black" style="stroke:black;stroke-opacity:1;" stroke-width="1.17182"/>
<path d="M696.824 217.999L737.99 217.648L696.824 217.999Z" fill="black" style="fill:black;fill-opacity:1;"/>
<path d="M696.824 217.999L737.99 217.648" stroke="black" style="stroke:black;stroke-opacity:1;" stroke-width="1.00157" stroke-dasharray="4.01 1"/>
<path d="M140.992 162.2V173.359H153.059V161.933" stroke="black" style="stroke:black;stroke-opacity:1;" stroke-width="0.999999"/>
<path d="M778.872 199.714H765.802V211.086H778.835" stroke="black" style="stroke:black;stroke-opacity:1;" stroke-width="0.999999"/>
<path d="M671.157 244.397V281.446H683.994V244.488L671.157 244.397Z" stroke="black" style="stroke:black;stroke-opacity:1;" stroke-width="0.999999"/>
<path d="M722.235 250.142L722.269 261.598H733.891V250.187L722.235 250.142Z" stroke="black" style="stroke:black;stroke-opacity:1;" stroke-width="0.999999"/>
<path d="M733.945 253.701H745.938V265.005H734.684V253.585" stroke="black" style="stroke:black;stroke-opacity:1;" stroke-width="0.999999"/>
<path d="M779.125 230.472H765.764L765.734 217.808L779.006 217.995" stroke="black" style="stroke:black;stroke-opacity:1;" stroke-width="0.999999"/>
<path d="M466.903 370.519V382.89H477.345V370.676" stroke="black" style="stroke:black;stroke-opacity:1;" stroke-width="0.999999"/>
<path d="M405.991 490.134V477.33H393.001V490.105" stroke="black" style="stroke:black;stroke-opacity:1;" stroke-width="0.999999"/>
<path d="M399.411 453.878C402.33 453.878 404.696 451.461 404.696 448.48C404.696 445.499 402.33 443.083 399.411 443.083C396.492 443.083 394.126 445.499 394.126 448.48C394.126 451.461 396.492 453.878 399.411 453.878Z" stroke="black" style="stroke:black;stroke-opacity:1;" stroke-width="0.977295"/>
<path d="M368.273 366.415V378.625H379.754V366.764" stroke="black" style="stroke:black;stroke-opacity:1;" stroke-width="0.999999"/>
<path d="M564.377 611.022L564.331 580.514L567.119 580.48V610.92" stroke="black" style="stroke:black;stroke-opacity:1;" stroke-width="0.999999"/>
<path d="M323.962 136.945H395.309" stroke="black" style="stroke:black;stroke-opacity:1;" stroke-width="0.999999"/>
<path d="M779.391 217.561L737.99 217.648" stroke="black" style="stroke:black;stroke-opacity:1;" stroke-width="0.999999"/>
<path d="M272.465 307.299L285.532 295.278" stroke="black" style="stroke:black;stroke-opacity:1;" stroke-width="0.999999"/>
<path d="M185.569 263.008H179.557V268.052H185.569V263.008Z" stroke="black" style="stroke:black;stroke-opacity:1;" stroke-width="0.865512"/>
<path d="M238.753 147.896H230.249V155.679H238.753V147.896Z" stroke="black" style="stroke:black;stroke-opacity:1;" stroke-width="0.865512"/>
<path d="M233.816 155.737C235.786 155.737 237.384 154.306 237.384 152.54C237.384 150.774 235.786 149.342 233.816 149.342C231.846 149.342 230.249 150.774 230.249 152.54C230.249 154.306 231.846 155.737 233.816 155.737Z" stroke="black" style="stroke:black;stroke-opacity:1;" stroke-width="0.865512"/>
<path d="M476.833 161.269C476.833 162.064 477.487 162.669 476.893 163.19C476.3 163.71 475.67 163.992 474.766 163.992C472.956 163.992 471.488 162.704 471.488 161.115C471.488 159.526 472.956 158.238 474.766 158.238C475.782 158.238 476.471 158.635 477.073 159.272C477.542 159.77 476.833 160.572 476.833 161.269Z" stroke="black" style="stroke:black;stroke-opacity:1;" stroke-width="1.10374"/>
<path d="M477.652 163.863C479.998 164.368 480.649 164.092 482.32 162.612ZM482.32 162.612C482.32 162.612 482.896 162.768 483.061 163.463L483.328 164.585C483.692 166.118 482.36 167.284 480.638 167.284C478.915 167.284 477.519 166.006 477.519 164.43C477.519 164.077 477.652 163.863 477.652 163.863" stroke="black" style="stroke:black;stroke-opacity:1;" stroke-width="1.08819"/>
<path d="M479.784 164.411C481.416 164.411 482.739 163.069 482.739 161.414C482.739 159.759 481.416 158.417 479.784 158.417C478.152 158.417 476.829 159.759 476.829 161.414C476.829 163.069 478.152 164.411 479.784 164.411Z" stroke="black" style="stroke:black;stroke-opacity:1;" stroke-width="1.20395"/>
<path d="M444.453 265.44H452.808L452.823 260.834L457.465 260.75V276.473H444.451L444.453 265.44Z" stroke="black" style="stroke:black;stroke-opacity:1;" stroke-width="0.703612"/>
<path d="M347.258 278.683H310.689V289.195H347.258V278.683Z" stroke="black" style="stroke:black;stroke-opacity:1;" stroke-width="0.943332"/>
<path d="M453.821 661.918L442.067 665.564L443.997 676.461L455.751 672.815L453.821 661.918Z" stroke="black" style="stroke:black;stroke-opacity:1;" stroke-width="0.731271"/>
<path d="M554.28 674.239H544.98V683.312H554.28V674.239Z" stroke="black" style="stroke:black;stroke-opacity:1;" stroke-width="0.865512"/>
<path d="M478.071 665.865L466.37 672.903L469.734 681.608L481.435 674.571L478.071 665.865Z" stroke="black" style="stroke:black;stroke-opacity:1;" stroke-width="0.687292"/>
<path d="M599.492 591.564H588.028V602.353H599.492V591.564Z" stroke="black" style="stroke:black;stroke-opacity:1;" stroke-width="0.865512"/>
<path d="M625.159 584.742H615.497V595.546H625.159V584.742Z" stroke="black" style="stroke:black;stroke-opacity:1;" stroke-width="0.865512"/>
<path d="M643.119 461.286H640.189V472.366H643.119V461.286Z" fill="#999999" stroke="black" style="fill:#999999;fill:color(display-p3 0.6000 0.6000 0.6000);fill-opacity:1;stroke:black;stroke-opacity:1;" stroke-width="0.865512"/>
<path d="M751.991 217.995V180.88" stroke="black" style="stroke:black;stroke-opacity:1;" stroke-width="0.999999"/>
<path d="M681.507 180.88L681.614 199.256L692.957 199.339L692.75 212.683" stroke="black" style="stroke:black;stroke-opacity:1;" stroke-width="0.999999"/>
<path d="M589.316 433.632V440.324" stroke="black" style="stroke:black;stroke-opacity:1;" stroke-width="0.999999"/>
<path d="M643.121 439.624V433.424" stroke="black" style="stroke:black;stroke-opacity:1;" stroke-width="0.999999"/>
<path d="M386.803 364.828V366.959" stroke="black" style="stroke:black;stroke-opacity:1;" stroke-width="0.999999"/>
<path d="M151.678 490.664H141.785V499.613H151.678V490.664Z" stroke="black" style="stroke:black;stroke-opacity:1;" stroke-width="0.865512"/>
</g>
<defs>
<linearGradient id="paint0_linear_1_2" x1="615.25" y1="136.6" x2="552.589" y2="136.6" gradientUnits="userSpaceOnUse">
<stop stop-color="#D9D9D9" style="stop-color:#D9D9D9;stop-color:color(display-p3 0.8510 0.8510 0.8510);stop-opacity:1;"/>
<stop offset="1" stop-color="#D9D9D9" stop-opacity="0" style="stop-color:none;stop-opacity:0;"/>
</linearGradient>
<clipPath id="clip0_1_2">
<rect width="851" height="872" fill="white" style="fill:white;fill-opacity:1;"/>
</clipPath>
</defs>
</svg>
